<?xml version="1.0" encoding="UTF-8"?>
<svg id="Layer_1" data-name="Layer 1" xmlns="http://www.w3.org/2000/svg" viewBox="0 0 954 162.2">
  <defs>
    <style>
      .cls-1 {
        fill: #f47f72;
      }

      .cls-2 {
        fill: #232559;
      }
    </style>
  </defs>
  <path class="cls-2" d="M53.27,57.94c-12.81,0-23.37,4.95-30.57,13.93V6.93L0,18.89V160.87H22.7v-56.86c0-15.74,10.11-25.85,24.27-25.85,13.04,0,22.03,8.54,22.03,24.28v58.43h22.7v-61.13c0-26.07-15.51-41.8-38.43-41.8Z"/>
  <path class="cls-2" d="M196.61,90.07c0-22.25-13.93-34.16-40.23-34.16-8.09,0-15.96,1.12-24.28,3.6l-3.15,18.21c7.87-2.7,15.73-4.5,24.27-4.5,16.19,0,21.8,6.3,21.8,18.43v5.17c-6.29-4.94-14.16-8.31-23.59-8.31-21.8,0-37.98,15.73-37.98,36.18s16.41,36.18,37.53,36.18c9.89,0,18.65-3.37,25.4-9.22l.67,6.74h20.45l-.9-18.88v-49.45Zm-41.7,53.71c-11.13,0-19.87-8.31-19.87-19.33s8.74-19.55,19.87-19.55,20.1,8.54,20.1,19.55-8.74,19.33-20.1,19.33Z"/>
  <polygon class="cls-2" points="261.32 115.7 234.59 57.76 215.24 67.94 261.32 160.87 313.9 54.79 289.41 54.79 261.32 115.7"/>
  <path class="cls-2" d="M384.67,55.46c-14.16,0-26.07,5.62-34.39,14.83V0l-22.92,12.07V107.16c0,32.14,23.15,53.71,53.94,53.71s55.06-22.48,55.06-53.04-22.92-52.37-51.69-52.37Zm-3.15,85.41c-18.43,0-31.92-14.16-31.92-32.36s14.16-33.04,32.59-33.04,31.91,14.16,31.91,32.59-14.16,32.82-32.58,32.82Z"/>
  <path class="cls-2" d="M605.29,75.46v-16.63l-7.54,1.11-13.81,7.27v93.65h22.7v-49.45c0-21.35,11.24-31.46,32.36-31.46v-21.35c-16.18,0-27.2,5.84-33.72,16.85Z"/>
  <path class="cls-2" d="M693.13,98.16l-4.49-1.57c-10.79-3.82-13.49-7.64-13.49-12.81,0-6.06,4.27-10.79,12.59-10.79,6.3,0,15.74,2.7,24.72,7.87l3.38-18.43c-9.22-4.49-19.33-7.42-28.55-7.42-19.77,0-33.03,12.59-33.03,29.44,0,14.38,8.77,24.95,24.27,30.11l4.05,1.35c12.36,4.05,15.51,8.09,15.51,13.94,0,7.86-5.84,12.59-14.83,12.59s-18.2-3.6-28.1-9.89l-3.15,18.43c9.67,5.85,21.35,9.89,32.59,9.89,21.12,0,35.06-12.81,35.06-31.24,0-15.29-9.21-25.85-26.52-31.47Z"/>
  <path class="cls-2" d="M805.83,57.04c-28.96-9.06-57.96,6.12-66.82,34.44-8.86,28.31,6.17,57.04,36.2,66.43,16.09,5.03,33.05,3.51,48.2-3.52l-1.64-19.59c-14.77,8.09-28.4,9.48-40.84,5.59-13.51-4.23-21.51-14.03-23.57-25.51l81.73-.8c5.32-27.54-9.02-49.45-33.26-57.04Zm-46.82,39.75c6.35-18.03,24.01-27.81,41.38-22.37,10.73,3.36,18.05,11.54,19.38,21.61l-60.76,.77Z"/>
  <path class="cls-2" d="M915.34,57.94c-12.81,0-23.82,4.95-31.24,13.71v-13.04l-21.8,3.37v98.89h22.7v-56.86c0-15.96,10.11-26.07,24.27-26.07,13.04,0,22.03,8.54,22.03,24.5v58.43h22.7v-61.13c0-26.07-15.28-41.8-38.65-41.8Z"/>
  <path class="cls-1" d="M539.86,65.44c1.26-5.84,2.13-12.03,2.61-18.56-4.2-1.62-10.3-3.5-18.6-5.03-.23,4.96-.74,9.68-1.48,14.19-5.02-1.57-10.34-2.42-15.87-2.42-29.62,0-53.62,24.31-53.62,54.29,0,9.94,2.68,19.22,7.28,27.23-5.69,2.67-10.57,4.47-13.98,5.59,2.22,3.84,5.84,9.21,11.6,15.78,4.17-1.64,9.16-3.82,14.66-6.67,9.26,7.72,21.12,12.35,34.05,12.35,29.62,0,53.62-24.31,53.62-54.29,0-17.21-7.93-32.52-20.28-42.47Zm-64.89,42.47c0-17.76,14.15-32.21,31.54-32.21,3.53,0,6.92,.62,10.09,1.72-8.52,21.76-23.18,36.67-37.34,46.64-2.72-4.76-4.3-10.27-4.3-16.16Zm31.54,32.21c-4.84,0-9.4-1.15-13.5-3.14,14.67-10.93,29.45-26.41,39.08-47.83,3.73,5.29,5.96,11.76,5.96,18.77,0,17.76-14.15,32.21-31.54,32.21Z"/>
</svg>